<svg width="1000" height="400" viewBox="0 0 1000 400" fill="none" xmlns="http://www.w3.org/2000/svg">
  <!-- Cinema Deep Black Background -->
  <rect width="1000" height="400" fill="#020202"/>
  
  <defs>
    <!-- Mist Blend for Logo -->
    <radialGradient id="mist_blend" cx="50%" cy="50%" r="50%">
      <stop offset="0%" stop-color="#ffffff" stop-opacity="0.1"/>
      <stop offset="100%" stop-color="#020202" stop-opacity="0"/>
    </radialGradient>
    
    <!-- Filter to blend PNG logo into the background -->
    <filter id="logo_intensity">
      <feColorMatrix type="matrix" values="1.2 0 0 0 0  0 1.2 0 0 0  0 0 1.2 0 0  0 0 0 1 0" />
    </filter>
  </defs>

  <!-- Background Smoke Layer -->
  <ellipse cx="300" cy="200" rx="250" ry="120" fill="url(#mist_blend)" opacity="0.6"/>

  <!-- THE LOGO SLOT: This will display your exact logo.png -->
  <g transform="translate(180, 50)" filter="url(#logo_intensity)">
    <image href="logo.png" width="400" height="300" preserveAspectRatio="xMidYMid meet" />
    
    <!-- Fallback if logo.png isn't there yet -->
    <text x="200" y="320" text-anchor="middle" fill="white" font-family="sans-serif" font-size="12" opacity="0.3">[ PLEASE SAVE YOUR IMAGE AS logo.png TO VIEW ]</text>
  </g>

  <!-- Centered Row of Professional Socials -->
  <g transform="translate(300, 340)" opacity="0.8">
    <g>
       <rect x="0" y="0" width="10" height="10" stroke="white" stroke-width="1.2" fill="none"/>
       <text x="16" y="9" fill="white" font-family="sans-serif" font-size="10" font-weight="600">ynubsec</text>
    </g>
    <path d="M100 0 L 112 10 L 100 10 L 112 0 Z" fill="white" opacity="0.5"/>
    <g transform="translate(180, 0)">
       <rect x="0" y="0" width="10" height="10" rx="3" stroke="white" stroke-width="1.2" fill="none"/>
       <text x="16" y="9" fill="white" font-family="sans-serif" font-size="10" font-weight="600">ynubsec</text>
    </g>
  </g>

  <!-- Final Icon Gateway -->
  <g transform="translate(320, 380)" opacity="0.9">
     <circle cx="0" cy="0" r="10" stroke="white" stroke-width="1" fill="none"/>
     <g transform="translate(60, -5)"><path d="M0 0 L 10 10 L 0 10 L 10 0 Z" fill="white"/></g>
     <g transform="translate(120, -5)"><rect x="0" y="0" width="12" height="12" rx="3" stroke="white" stroke-width="1" fill="none"/></g>
     <g transform="translate(180, -5)"><path d="M5 2 C 3 2, 2 3, 2 5 L 2 10 C 2 12, 3 13, 5 13 L 10 13 C 12 13, 13 12, 13 10 L 13 5 C 13 3, 12 2, 10 2 Z" fill="white"/></g>
  </g>

  <!-- Right Side: Cinematic Character Profile -->
  <g id="Character" transform="translate(680, 0)">
    <path d="M50 400 L 0 400 C 0 300, 20 200, 80 120 Q 120 70, 220 50 Q 350 30, 320 200 L 320 400 Z" fill="#0A0A0C"/>
    <!-- Intense Golden Eye and Sparks -->
    <g transform="translate(240, 175)">
       <path d="M-12 -3 Q 5 -10, 22 -3" stroke="#FFD700" stroke-width="4">
         <animate attributeName="stroke-opacity" values="0.4;1;0.4" dur="2.5s" repeatCount="indefinite"/>
       </path>
    </g>
    <!-- Particle Embers -->
    <circle cx="280" cy="140" r="3" fill="#FFD700" fill-opacity="0.8">
      <animate attributeName="opacity" values="0.2;1;0.2" dur="3s" repeatCount="indefinite"/>
    </circle>
  </g>
</svg>
