<svg width="1000" height="300" viewBox="0 0 1000 300" fill="none" xmlns="http://www.w3.org/2000/svg">
  <!-- Background -->
  <rect width="1000" height="300" rx="15" fill="#0D1117"/>
  <rect width="1000" height="300" rx="15" fill="url(#paint0_linear_1_2)" fill-opacity="0.2"/>
  
  <!-- Left Section: Contribution Grid -->
  <g id="grid">
    <rect x="60" y="80" width="25" height="25" rx="4" fill="#006d32"/>
    <rect x="90" y="80" width="25" height="25" rx="4" fill="#26a641"/>
    <rect x="120" y="80" width="25" height="25" rx="4" fill="#006d32"/>
    <rect x="150" y="80" width="25" height="25" rx="4" fill="#39d353"/>
    
    <rect x="60" y="110" width="25" height="25" rx="4" fill="#26a641"/>
    <rect x="90" y="110" width="25" height="25" rx="4" fill="#39d353"/>
    <rect x="120" y="110" width="25" height="25" rx="4" fill="#006d32"/>
    <rect x="150" y="110" width="25" height="25" rx="4" fill="#26a641"/>
    
    <rect x="60" y="140" width="25" height="25" rx="4" fill="#39d353"/>
    <rect x="90" y="140" width="25" height="25" rx="4" fill="#006d32"/>
    <rect x="120" y="140" width="25" height="25" rx="4" fill="#39d353"/>
    <rect x="150" y="140" width="25" height="25" rx="4" fill="#006d32"/>
    
    <rect x="60" y="170" width="25" height="25" rx="4" fill="#006d32"/>
    <rect x="90" y="170" width="25" height="25" rx="4" fill="#26a641"/>
    <rect x="120" y="170" width="25" height="25" rx="4" fill="#006d32"/>
    <rect x="150" y="170" width="25" height="25" rx="4" fill="#26a641"/>
  </g>

  <!-- Center Content -->
  <text fill="#ffffff" xml:space="preserve" style="white-space: pre" font-family="'Segoe UI', Roboto, Helvetica, Arial, sans-serif" font-size="28" font-weight="600" letter-spacing="0em"><tspan x="360" y="100">Bishnu Neupane</tspan></text>
  <text fill="#00FF9C" xml:space="preserve" style="white-space: pre" font-family="'Segoe UI', Roboto, Helvetica, Arial, sans-serif" font-size="72" font-weight="800" letter-spacing="-0.02em"><tspan x="360" y="165">YNUBSEC</tspan></text>
  
  <rect x="360" y="185" width="320" height="40" rx="20" stroke="#00FF9C" stroke-width="2"/>
  <text fill="#00FF9C" xml:space="preserve" style="white-space: pre" font-family="'Segoe UI', Roboto, Helvetica, Arial, sans-serif" font-size="16" font-weight="600" letter-spacing="0.1em"><tspan x="405" y="211">RED TEAM &amp; SECURITY RESEARCH</tspan></text>
  
  <text fill="#8B949E" xml:space="preserve" style="white-space: pre" font-family="'Segoe UI', Roboto, Helvetica, Arial, sans-serif" font-size="14" font-style="italic" letter-spacing="0em"><tspan x="360" y="245">&quot;Breaking systems to build a safer tomorrow.&quot;</tspan></text>

  <!-- Right Side: Capability Pills -->
  <rect x="740" y="85" width="200" height="35" rx="17.5" fill="#161b22" stroke="#30363d"/>
  <text fill="#ffffff" xml:space="preserve" style="white-space: pre" font-family="'Segoe UI', Roboto, Helvetica, Arial, sans-serif" font-size="13" font-weight="500"><tspan x="785" y="107">Red Teaming</tspan></text>
  
  <rect x="740" y="132" width="200" height="35" rx="17.5" fill="#161b22" stroke="#30363d"/>
  <text fill="#ffffff" xml:space="preserve" style="white-space: pre" font-family="'Segoe UI', Roboto, Helvetica, Arial, sans-serif" font-size="13" font-weight="500"><tspan x="778" y="154">Malware Analysis</tspan></text>
  
  <rect x="740" y="179" width="200" height="35" rx="17.5" fill="#161b22" stroke="#30363d"/>
  <text fill="#ffffff" xml:space="preserve" style="white-space: pre" font-family="'Segoe UI', Roboto, Helvetica, Arial, sans-serif" font-size="13" font-weight="500"><tspan x="782" y="201">Secure Coding</tspan></text>

  <!-- Decorators -->
  <path d="M885 240L905 260M905 240L885 260" stroke="#00FF9C" stroke-width="2" stroke-linecap="round"/>
  <circle cx="895" cy="250" r="15" stroke="#00FF9C" stroke-width="1" stroke-dasharray="2 2"/>

  <!-- Definitions -->
  <defs>
    <linearGradient id="paint0_linear_1_2" x1="0" y1="0" x2="1000" y2="300" gradientUnits="userSpaceOnUse">
      <stop stop-color="#00FF9C"/>
      <stop offset="1" stop-color="#006d32"/>
    </linearGradient>
  </defs>
</svg>
