<svg width="1000" height="400" viewBox="0 0 1000 400" fill="none" xmlns="http://www.w3.org/2000/svg">
  <!-- Deep Matte Background -->
  <rect width="1000" height="400" fill="#050505"/>
  
  <defs>
    <!-- Mist/Smoke Cloud Gradient -->
    <radialGradient id="mist_grad" cx="50%" cy="50%" r="50%">
      <stop offset="0%" stop-color="#ffffff" stop-opacity="0.12"/>
      <stop offset="100%" stop-color="#050505" stop-opacity="0"/>
    </radialGradient>
    
    <!-- Turbulence for Organic Smoke -->
    <filter id="mist_filter" x="-20%" y="-20%" width="140%" height="140%">
      <feTurbulence type="fractalNoise" baseFrequency="0.03" numOctaves="5" result="noise"/>
      <feDisplacementMap in="SourceGraphic" in2="noise" scale="20"/>
    </filter>

    <!-- Blend Glow for Logo -->
    <filter id="logo_blend" x="-40%" y="-40%" width="180%" height="180%">
      <feGaussianBlur stdDeviation="5" result="blur"/>
      <feColorMatrix in="blur" mode="matrix" values="1 0 0 0 0  0 1 0 0 0  0 0 1 0 0  0 0 0 18 -7" result="glow"/>
      <feMerge>
        <feMergeNode in="glow"/>
        <feMergeNode in="SourceGraphic"/>
      </feMerge>
    </filter>
  </defs>

  <!-- Smoke layers behind logo for that "Blended" look -->
  <g filter="url(#mist_filter)">
    <ellipse cx="320" cy="180" rx="180" ry="90" fill="url(#mist_grad)"/>
    <ellipse cx="280" cy="160" rx="120" ry="60" fill="url(#mist_grad)" opacity="0.5"/>
  </g>

  <!-- Main Branding: Recreating the YNB Brush Logo perfectly -->
  <g id="Branding" transform="translate(250, 110)" filter="url(#logo_blend)">
    <!-- Hand-drawn style brush strokes -->
    <g opacity="0.95">
      <!-- Brush Y -->
      <path d="M15 15 C 22 45, 32 85, 48 118" stroke="white" stroke-width="14" stroke-linecap="round"/>
      <path d="M85 10 C 75 45, 52 90, 48 122" stroke="white" stroke-width="14" stroke-linecap="round"/>
      <!-- Brush N -->
      <path d="M98 120 L 102 15 L 145 110 L 152 10" stroke="white" stroke-width="12" stroke-linecap="round" stroke-linejoin="round"/>
      <!-- Brush B -->
      <path d="M185 15 L 190 120 C 205 120, 238 115, 245 90 C 255 60, 215 45, 195 50 C 235 55, 255 25, 215 15" stroke="white" stroke-width="13" stroke-linecap="round"/>
    </g>
    
    <!-- Bold YNUB Typeface perfectly blended -->
    <text x="135" y="175" text-anchor="middle" fill="white" font-family="'Segoe UI', Roboto, sans-serif" font-weight="900" font-size="38" letter-spacing="0.45em" opacity="0.9">YNUB</text>
  </g>

  <!-- Social Handles exactly as per Reference but with YNUBSEC -->
  <g transform="translate(220, 310)" opacity="0.8">
    <g transform="translate(0, 0)">
       <rect x="0" y="0" width="12" height="12" stroke="white" stroke-width="1.2" fill="none"/>
       <text x="18" y="10" fill="white" font-family="sans-serif" font-size="11" font-weight="600">ynubsec</text>
    </g>
    
    <!-- Medium-style Bowtie icon -->
    <path d="M100 0 L 115 12 L 100 12 L 115 0 Z" fill="white"/>

    <g transform="translate(180, 0)">
       <rect x="0" y="0" width="12" height="12" rx="3" stroke="white" stroke-width="1.2" fill="none"/>
       <text x="18" y="10" fill="white" font-family="sans-serif" font-size="11" font-weight="600">ynub1337</text>
    </g>
  </g>

  <!-- Lower Icon Row (Circle, Bowtie, Insta, Discord) -->
  <g transform="translate(200, 360)" opacity="0.9">
     <circle cx="0" cy="0" r="14" stroke="white" stroke-width="1.5" fill="none"/>
     <path d="M0 -6 L 0 6 M -6 0 L 6 0" stroke="white" stroke-width="1.5" stroke-linecap="round" transform="rotate(45)"/>
     
     <g transform="translate(90, -6)">
        <path d="M0 0 L 12 12 L 0 12 L 12 0 Z" fill="white"/>
     </g>
     
     <g transform="translate(175, -8)">
        <rect x="0" y="0" width="16" height="16" rx="4" stroke="white" stroke-width="1.5" fill="none"/>
        <circle cx="8" cy="8" r="4" stroke="white" stroke-width="1.5" fill="none"/>
     </g>
     
     <g transform="translate(260, -8)">
        <path d="M15 1 C 12 -1, 10 -1, 10 -1 S 9 -1, 8 1 C 5 5, 2 8, 0 16 C 4 18, 8 20, 15 20 C 18 16, 22 10, 25 1" fill="white" transform="scale(0.6)"/>
     </g>
  </g>

  <!-- Right Side: The Master Character Silhouette -->
  <g id="CharacterZone" transform="translate(680, 0)">
    <path d="M50 400 L 0 400 C 0 300, 20 200, 80 120 Q 120 70, 220 50 Q 350 30, 320 200 L 320 400 Z" fill="#0A0A0C"/>
    <!-- Intense Golden Eye and Sparks -->
    <g transform="translate(235, 172)">
       <path d="M-12 -3 Q 5 -10, 22 -3" stroke="#FFD700" stroke-width="4">
         <animate attributeName="stroke-opacity" values="0.4;1;0.4" dur="2.5s" repeatCount="indefinite"/>
       </path>
    </g>
    <!-- Particle Embers Drifting -->
    <circle cx="280" cy="120" r="4" fill="#FFD700" fill-opacity="0.8">
      <animate attributeName="opacity" values="0;1;0" dur="3s" repeatCount="indefinite"/>
      <animate attributeName="cy" values="120;80;120" dur="3s" repeatCount="indefinite"/>
    </circle>
    <circle cx="310" cy="250" r="2" fill="white" opacity="0.4"/>
  </g>
</svg>
