<svg width="1600" height="500" viewBox="0 0 1600 500" fill="none" xmlns="http://www.w3.org/2000/svg" xmlns:xlink="http://www.w3.org/1999/xlink">
  <defs>
    <!-- Cinematic Glow -->
    <filter id="ultraGlow">
      <feGaussianBlur stdDeviation="10" result="blur"/>
      <feMerge>
        <feMergeNode in="blur"/>
        <feMergeNode in="SourceGraphic"/>
      </feMerge>
    </filter>

    <!-- Smoke/Mist Pattern -->
    <radialGradient id="smoke_grad" cx="50%" cy="50%" r="50%">
      <stop offset="0%" stop-color="#ffffff" stop-opacity="0.1"/>
      <stop offset="100%" stop-color="#000000" stop-opacity="0"/>
    </radialGradient>

    <!-- Falling/Floating Ember -->
    <circle id="spark" r="3" fill="#FFC107">
      <animate attributeName="cy" from="550" to="-50" dur="8s" repeatCount="indefinite"/>
      <animate attributeName="opacity" values="0;1;0.5;0" dur="8s" repeatCount="indefinite"/>
    </circle>
  </defs>

  <!-- Solid Deep Black -->
  <rect width="1600" height="500" fill="#000000"/>

  <!-- Smoky Background Layer -->
  <g opacity="0.4">
    <circle cx="400" cy="250" r="300" fill="url(#smoke_grad)"/>
    <circle cx="1200" cy="250" r="400" fill="url(#smoke_grad)"/>
  </g>

  <!-- Left: Cinematic Branding (YNB Brush + YNUBSEC) -->
  <g id="Branding" transform="translate(350, 100)" filter="url(#ultraGlow)">
      <!-- Brush YNB Strokes (High fidelity recreation) -->
      <g opacity="0.95">
        <!-- Y -->
        <path d="M10 20 C 15 50, 25 90, 45 130 M 80 15 C 70 50, 50 95, 45 135" stroke="white" stroke-width="12" stroke-linecap="round"/>
        <!-- N -->
        <path d="M95 120 L 100 20 L 140 110 L 145 15" stroke="white" stroke-width="10" stroke-linecap="round" stroke-linejoin="round"/>
        <!-- B -->
        <path d="M175 15 L 180 135 C 195 135, 235 125, 245 95 C 255 65, 215 45, 195 50 C 235 55, 255 25, 210 15" stroke="white" stroke-width="11" stroke-linecap="round"/>
      </g>
      <!-- YNUBSEC Subtext -->
      <text x="125" y="185" text-anchor="middle" fill="white" font-family="'Inter', sans-serif" font-weight="800" font-size="34" letter-spacing="0.25em" opacity="0.9">YNUBSEC</text>
  </g>

  <!-- Social handles row perfectly aligned -->
  <g transform="translate(300, 320)" opacity="0.8">
    <g transform="translate(0, 0)">
       <path d="M12 0c-6.6 0-12 5.4-12 12 0 5.3 3.4 9.8 8.1 11.4l.2-2.1" fill="white" transform="scale(0.7) translate(0,-4)"/>
       <text x="25" y="14" fill="white" font-family="sans-serif" font-size="16" font-weight="600">ynubsec</text>
    </g>
    <path d="M130 0 L 145 15 L 130 15 L 145 0 Z" fill="white" opacity="0.5"/>
    <g transform="translate(180, 0)">
       <rect x="0" y="-3" width="18" height="18" rx="5" stroke="white" stroke-width="1.8" fill="none"/>
       <circle cx="9" cy="6" r="4.5" stroke="white" stroke-width="1.8" fill="none"/>
       <text x="25" y="14" fill="white" font-family="sans-serif" font-size="16" font-weight="600">ynubsec</text>
    </g>
  </g>

  <!-- RIGHT: The Cinematic Anime Character (Detailed Recreation) -->
  <g id="AnimeCharacter" transform="translate(1000, 30) scale(1.1)">
    <!-- Main Body Shape with Depth -->
    <path d="M50 450 L 0 450 C 0 350, 40 220, 100 140 Q 150 100, 250 80 Q 380 60, 350 250 L 350 450 Z" fill="#0A0A0C"/>
    
    <!-- Face/Hair Detailed Outlines -->
    <path d="M140 140 C 130 110, 150 60, 210 50 C 270 40, 330 100, 340 180 C 345 230, 315 300, 280 340" stroke="white" stroke-opacity="0.1" stroke-width="2" fill="none"/>
    
    <!-- Intense Side-Profile Eye -->
    <g transform="translate(255, 190)">
       <!-- Eye Shape -->
       <path d="M-15 -4 Q 5 -12, 28 -4" stroke="#FFD700" stroke-width="5" stroke-opacity="0.9" filter="url(#ultraGlow)">
         <animate attributeName="stroke-opacity" values="0.5;1;0.5" dur="3s" repeatCount="indefinite"/>
       </path>
       <!-- Pupil highlight -->
       <circle cx="6" cy="0" r="1.5" fill="white" fill-opacity="0.6"/>
    </g>

    <!-- Detailed Hair Strands from reference -->
    <path d="M150 110 L 130 140 M 180 70 L 160 100 M 270 60 L 250 90" stroke="white" stroke-opacity="0.1" stroke-width="3"/>
  </g>

  <!-- Animated Sparks/Embers from the Character -->
  <g id="Embers">
    <use href="#spark" x="1250" dur="4s"/>
    <use href="#spark" x="1350" dur="6s"/>
    <use href="#spark" x="1150" dur="5s"/>
    <use href="#spark" x="1450" dur="7s"/>
  </g>

  <!-- Floating Depth Shards (Bottom Left) -->
  <path d="M50 420 L 180 500 L 0 500 Z" fill="#FFFFFF" opacity="0.05"/>
</svg>
